:SAMPLES-PER-SECOND 30
:FULLY-SPECIFIED
:DEGREES
665
root  -11.1886 37.316 3.2692 15.6796 -78.0996 -16.9329
RightUpLeg  -26.3574 -2.80933 5.74524
RightLeg  59.738 -0.888508 -2.07816
RightFoot  5.48046 -1.39526 9.65555
RightToes  6.35927e-011 1.30204e-014 -6.03759e-014
Spine  27.963 -0.952956 -4.0374
Spine1  -26.3957 -1.19452 11.3479
HEad  -68.4315 -2.20789 -4.86452
LeftShoulder1  0.27003 2.08514 -11.8112
LeftArm  -34.1512 35.1619 -28.4301
LeftForeArm  -178.41 -59.9448 -164.151
LeftHand  0.837945 7.18752 49.1474
RightShoulder  0.424656 -1.41808 13.5845
RightArm  -34.0421 -49.6733 33.6503
RightForeArm  -160.265 60.8966 164.963
RightHand  -3.04004 1.62532 -47.9587
LeftUpLeg  -27.1412 -10.4315 3.51088
LeftLeg  63.0102 -0.328539 -0.34862
LeftFoot  -5.13238 0.825533 -14.5256
LeftToes  7.40077e-010 7.2695e-011 -6.03601e-011
666
root  -11.4682 37.3748 3.73644 -8.85614 -83.2963 5.47272
RightUpLeg  -30.1153 -3.90915 -0.0977082
RightLeg  65.7086 1.47211 2.87018
RightFoot  21.7376 -2.7155 9.70123
RightToes  6.35927e-011 1.30204e-014 -6.03759e-014
Spine  26.5223 0.10854 -3.48029
Spine1  -26.249 -0.313255 3.79038
HEad  -68.1898 -2.36899 -6.04959
LeftShoulder1  0.419351 1.4751 -13.7082
LeftArm  -20.4523 29.8398 -27.3157
LeftForeArm  -134.872 -55.9486 -169.038
LeftHand  -0.101085 5.12372 48.0017
RightShoulder  0.461309 -1.22728 13.4493
RightArm  -23.8302 -44.0926 37.1469
RightForeArm  -132.242 58.0948 168.162
RightHand  -3.20053 2.29717 -46.0288
LeftUpLeg  -17.127 -9.55633 -4.30121
LeftLeg  53.7204 4.15961 6.583
LeftFoot  -9.45697 0.25862 -10.9594
LeftToes  7.40077e-010 7.2695e-011 -6.03601e-011
667
root  -11.7532 37.0544 4.08104 -66.0178 -85.6315 61.3107
RightUpLeg  -35.447 -2.62176 -5.4029
RightLeg  72.9799 0.588378 0.850115
RightFoot  26.2107 -2.6571 8.29243
RightToes  6.35927e-011 1.30204e-014 -6.03759e-014
Spine  25.3016 1.63934 -3.46418
Spine1  -26.6675 0.895758 -2.3976
HEad  -67.2957 -2.7766 -6.85744
LeftShoulder1  0.547901 0.818922 -13.4404
LeftArm  -17.8638 28.5512 -25.7827
LeftForeArm  -112.193 -55.7701 -169.939
LeftHand  -1.58717 1.81042 48.9668
RightShoulder  0.529581 -0.907999 13.5714
RightArm  -22.0437 -42.1691 35.2954
RightForeArm  -125.042 56.5303 169.185
RightHand  -3.70824 3.26911 -47.2619
LeftUpLeg  -11.6696 -7.652 -10.7788
LeftLeg  50.1396 9.70853 12.81
LeftFoot  -15.8042 -0.230921 -7.95243
LeftToes  7.40077e-010 7.2695e-011 -6.03601e-011
668
root  -11.8862 36.8304 4.22156 -101.714 -83.8111 95.8833
RightUpLeg  -39.2405 -1.35694 -8.33036
RightLeg  79.5699 -0.697679 -6.35286
RightFoot  17.04 -0.984533 4.14096
RightToes  6.35927e-011 1.30204e-014 -6.03759e-014
Spine  25.6984 2.48283 -3.321
Spine1  -28.0777 1.51586 -5.23717
HEad  -67.4392 -2.92555 -6.85084
LeftShoulder1  0.583614 0.421972 -11.7564
LeftArm  -25.722 31.0244 -23.875
LeftForeArm  -133.048 -60.776 -166.372
LeftHand  0.113503 5.57809 48.2673
RightShoulder  0.642392 -0.389126 13.8041
RightArm  -28.6376 -44.4729 29.7442
RightForeArm  -145.674 57.7708 167.476
RightHand  -2.9422 1.33702 -48.1961
LeftUpLeg  -10.3097 -4.94969 -13.5116
LeftLeg  50.5061 10.7598 14.1291
LeftFoot  -16.7683 -0.264314 -7.68493
LeftToes  7.40077e-010 7.2695e-011 -6.03601e-011
669
root  -11.9282 36.8045 4.22256 -103.297 -83.3614 95.733
RightUpLeg  -38.4371 -0.770223 -8.76726
RightLeg  81.8325 -0.93039 -10.6326
RightFoot  9.45491 0.367036 -1.35994
RightToes  6.35927e-011 1.30204e-014 -6.03759e-014
Spine  27.2996 2.18178 -2.57561
Spine1  -29.3658 1.15037 -5.99035
HEad  -68.4136 -2.64222 -6.47132
LeftShoulder1  0.526271 0.610512 -10.9594
LeftArm  -38.7369 34.9449 -23.577
LeftForeArm  -176.1 -69.129 -156.103
LeftHand  1.84704 9.18317 51.2563
RightShoulder  0.704095 -0.0841727 13.748
RightArm  -38.9619 -48.073 27.006
RightForeArm  -178.256 62.5265 162.109
RightHand  -3.09961 1.02515 -52.2767
LeftUpLeg  -10.5243 -1.45715 -13.0627
LeftLeg  52.8478 8.65069 12.5581
LeftFoot  -12.795 -0.0326173 -8.43283
LeftToes  7.40077e-010 7.2695e-011 -6.03601e-011
670
root  -12.0277 37.0645 4.12377 -95.2635 -84.2235 85.9822
RightUpLeg  -32.9827 -0.215659 -7.77678
RightLeg  77.7238 -1.10486 -7.98485
RightFoot  12.8589 0.428437 -1.82642
RightToes  6.35927e-011 1.30204e-014 -6.03759e-014
Spine  28.3203 1.20734 -1.44997
Spine1  -29.7032 0.329286 -5.26083
HEad  -68.5449 -2.35292 -6.545
LeftShoulder1  0.404501 1.37465 -11.8941
LeftArm  -50.2667 37.4564 -25.8733
LeftForeArm  143.411 -73.6399 -143.297
LeftHand  3.32507 11.3209 58.2687
RightShoulder  0.686934 -0.179756 13.8413
RightArm  -47.2556 -49.4 29.2163
RightForeArm  156.629 65.6617 156.954
RightHand  -3.93218 1.78059 -58.6276
LeftUpLeg  -11.2064 1.41674 -11.0504
LeftLeg  55.5402 7.29394 11.843
LeftFoot  -6.63551 0.437625 -9.60627
LeftToes  7.40077e-010 7.2695e-011 -6.03601e-011
